<svg width="915" height="976" viewBox="0 0 915 976" fill="none" xmlns="http://www.w3.org/2000/svg">
<mask id="mask0_96_610" style="mask-type:alpha" maskUnits="userSpaceOnUse" x="0" y="136" width="1017" height="703">
<path d="M0.00295661 148.5C0.49005 374.941 16.018 527.753 115.525 696.989C171.158 791.607 279.088 838.802 388.85 838.802V645.147C366.73 645.147 344.897 638.264 328.317 623.621C227.255 534.363 194.843 413.845 193.679 151.953C193.642 143.761 187.005 136.996 178.813 136.996H11.4088C5.10282 136.996 -0.0106081 142.194 0.00295661 148.5Z" fill="white"/>
<path d="M388.85 154.698C388.85 144.921 396.776 136.996 406.552 136.996H675.46C771.757 136.996 852.454 170.46 917.99 238.002C983.525 305.544 1016.29 388.927 1016.29 487.899C1016.29 587.54 983.525 671.007 917.99 738.549C853.122 805.422 772.426 838.802 675.46 838.802L388.85 838.802L388.85 154.698ZM573.985 648.245C573.985 657.657 581.615 665.287 591.027 665.287H675.46C723.609 665.287 763.178 649.273 794.609 617.174C825.37 584.406 840.841 541.398 840.841 487.899C840.841 433.732 825.37 390.808 794.609 359.377C763.847 326.609 724.277 310.511 675.46 310.511H591.027C581.615 310.511 573.985 318.141 573.985 327.553V648.245Z" fill="#F39600"/>
</mask>
<g mask="url(#mask0_96_610)">
<path d="M0.00188725 148.497C0.488983 374.937 16.017 527.749 115.524 696.985C171.157 791.604 279.087 838.798 388.849 838.798V645.143C366.729 645.143 344.895 638.261 328.316 623.618C227.254 534.36 194.842 413.841 193.678 151.95C193.641 143.758 187.004 136.992 178.812 136.992H11.4077C5.10175 136.992 -0.0116775 142.191 0.00188725 148.497Z" fill="#EDEDF0"/>
<g filter="url(#filter0_d_96_610)">
<path d="M388.844 158.359C388.844 146.56 398.408 136.996 410.206 136.996H675.453C771.751 136.996 852.447 170.46 917.983 238.002C983.519 305.544 1016.29 388.927 1016.29 487.899C1016.29 587.54 983.519 671.006 917.983 738.548C853.116 805.422 772.419 838.802 675.453 838.802H388.844V158.359ZM573.978 644.72C573.978 656.079 583.186 665.287 594.545 665.287H675.453C723.602 665.287 763.172 649.273 794.602 617.173C825.364 584.405 840.835 541.398 840.835 487.899C840.835 433.732 825.364 390.807 794.602 359.377C763.84 326.609 724.271 310.511 675.453 310.511H594.545C583.186 310.511 573.978 319.719 573.978 331.078V487.899V644.72Z" fill="#DADADA"/>
</g>
</g>
<defs>
<filter id="filter0_d_96_610" x="235.471" y="0.055954" width="901.322" height="975.686" filterUnits="userSpaceOnUse" color-interpolation-filters="sRGB">
<feFlood flood-opacity="0" result="BackgroundImageFix"/>
<feColorMatrix in="SourceAlpha" type="matrix" values="0 0 0 0 0 0 0 0 0 0 0 0 0 0 0 0 0 0 127 0" result="hardAlpha"/>
<feOffset dx="-16.4328"/>
<feGaussianBlur stdDeviation="68.4699"/>
<feComposite in2="hardAlpha" operator="out"/>
<feColorMatrix type="matrix" values="0 0 0 0 0 0 0 0 0 0 0 0 0 0 0 0 0 0 0.45 0"/>
<feBlend mode="normal" in2="BackgroundImageFix" result="effect1_dropShadow_96_610"/>
<feBlend mode="normal" in="SourceGraphic" in2="effect1_dropShadow_96_610" result="shape"/>
</filter>
</defs>
</svg>
